<?xml version="1.0" encoding="UTF-8"?>
<svg id="Layer_2" data-name="Layer 2" xmlns="http://www.w3.org/2000/svg" viewBox="0 0 191.31 198.36">
  <defs>
    <style>
      .cls-1, .cls-2, .cls-3 {
        stroke-width: 0px;
      }

      .cls-2 {
        fill: #14548a;
      }

      .cls-3 {
        fill: #fff;
      }
    </style>
  </defs>
  <g id="Layer_2-2" data-name="Layer 2">
    <path class="cls-2" d="m159.08,153.64c-3.63,1.08-7.29,2.06-10.88,3.26-3.37,1.12-6.77,1.81-10.34,1.52-.39-.03-.79.03-1.19.07-.07,0-.12.09-.31.23.3,1.49.66,3.03.9,4.59.17,1.09.27,2.22.23,3.32-.2,5.23-.47,10.45-.67,15.68-.03.79-.26,1.3-.93,1.77-5.66,3.89-11.28,7.84-16.95,11.72-.55.38-1.31.61-1.98.63-16.29.6-32.58,1.17-48.87,1.74-1.16.04-2.31.12-3.71.19.28-.48.45-.81.66-1.12,5.65-8.42,11.24-16.89,17.02-25.23,1.41-2.04,3.44-3.65,5.2-5.45,4.16-4.25,8.32-8.48,12.62-12.87-.82-.42-1.43-.74-2.04-1.05.26-.53.86-.66,1.81-.41.35-4.2,2.6-7.74,4.1-11.53,2.65-6.72,5.43-13.4,8.36-20,.96-2.15,2.55-4.03,3.9-6.01,1.85-2.7,3.75-5.37,5.62-8.06.22-.32.46-.63.8-1.1,2.15,2.44,5.14,2.63,7.94,3.31,3.05.74,5.62-.51,8.28-1.94.52,1,1.07,1.93,1.49,2.9,2.21,5.03,5.53,9.32,8.88,13.59,1.79,2.28,2.81,4.93,3.73,7.58,1.13,3.24,1.96,6.58,2.87,9.89.14.5.13,1.1-.02,1.59-.26.81-.07,1.37.55,1.89.31.26.64.61.75.98.75,2.48,1.45,4.98,2.15,7.48.06.22,0,.46,0,.79l.03.05Zm-30.39-11.09c-.11-1.61-1.19-.41-1.92-.85,0,.8-.05,1.39.02,1.97.03.28.28.54.43.81.16-.27.45-.53.45-.8,0-.75.22-1.22,1.06-1.17-.15.93.03,1.74,1.05,1.95.56.12,1.37.34,1.59-.75-.57-.03-1.06-.06-1.55-.09v-.25c.57-.04,1.14-.09,2.06-.16-.47-.6-.7-1.16-1.11-1.36-.82-.39-1.53,0-2.08.69h0Zm13.92-6.23c.8-.87,1.3-1.42,1.81-1.98-.07-.12-.14-.23-.21-.35-.74.26-1.48.51-2.31.8-.03-.57-.02-1.19-.14-1.8-.04-.21-.38-.45-.62-.51-.13-.03-.49.3-.49.47-.04,1.74-.02,3.49-.02,5.15,1.24.48,1.13-.47,1.36-1.13.84.58,1.36,1.81,3,.88-.87-.56-1.6-1.03-2.38-1.53h0Zm-14.19-2.97c-.03-.23-.06-.46-.09-.69-.68-.08-1.43-.38-2.02-.18-.58.19-1.23.81-1.4,1.38-.12.4.47,1.05.83,1.53.14.2.53.2.72.38.32.3.58.68.87,1.02-.46.04-1.01.27-1.37.1-.72-.35-1.01-.1-1.3.56.25.18.49.4.76.54,1.19.63,2.63.25,3.1-.8.46-1.02,0-1.82-1.39-2.46-.37-.17-.71-.4-1.06-.6.02-.11.04-.22.06-.34l2.29-.46v.02Zm5.6,4.93c1.26.04,2.16-.77,2.21-1.99.05-1.21-.83-2.16-2.02-2.21s-2.17.84-2.22,2.02c-.05,1.21.81,2.14,2.03,2.18h0Zm-1.77-3.25c-.46-.45-.67-.7-.93-.9-.17-.13-.57-.18-.58-.28-.04-.64-.45-.98-.92-.68-.57.38-.97,1.03-1.41,1.59-.04.04.12.36.2.36.93.04.75.72.79,1.29.11,1.58.79,2.06,2.51,1.66-.12-.28-.19-.74-.34-.77-1.36-.24-.79-1.2-.85-2,.39-.07.73-.13,1.52-.28h.01Zm8.12.18c-1.16-1.31-2.38-1.42-3.34-.54-.93.85-.94,2.18-.02,3.05.93.88,2.29.75,3.45-.58-.61-.07-1.01-.11-1.42-.17-.42-.06-.93-.03-1.23-.26-.18-.14-.19-.85,0-1.04.24-.24.74-.24,1.14-.31.4-.07.8-.09,1.42-.16h0Zm-5.68,9.3c0-1.16.02-2.15-.02-3.13,0-.19-.18-.48-.33-.53-.15-.04-.38.16-.56.27-.31.2-.59.54-.93.61-.91.19-1.13.78-1.09,1.57.04.82.49,1.22,1.31,1.21h1.62Zm10.77-2.49c.02.14.03.29.05.43.38.04.76.08.79.08-.27.4-1.01,1.11-.88,1.36.63,1.23,1.75.33,2.7.59-.11-.71-.11-1.24-.29-1.7-.16-.39-.49-.9-.83-.98-.47-.11-1.02.13-1.54.21h0Zm-18.95-.18c-.5-1.05-1.39-.93-2.16-.72-.84.23-1.21,1.04-.97,1.81.19.59.68,1.29,1.22,1.5.67.26,1.58.22,1.94-.88-.74-.48-2.18.97-2.3-.7-.14-1.94,1.67-.25,2.27-1.02h0Zm21.84,0c0,.62-.04,1.21.02,1.79.03.3.25.57.39.86.18-.29.36-.58.53-.88.19-.33.36-.66.53-1,.13.33.28.65.39.99.06.18,0,.41.05.59.04.12.19.26.31.27.13.02.39-.09.39-.15,0-.67.1-1.37-.1-1.98-.09-.28-.74-.46-1.16-.55-.37-.08-.77.02-1.35.06h0Zm-23.89-5.57c0-.48.07-.97-.03-1.42-.05-.26-.37-.46-.57-.69-.21.19-.59.36-.6.56-.06.99-.07,1.98,0,2.97,0,.2.46.37.71.56.16-.22.42-.42.46-.67.08-.42.02-.87.02-1.31h0Zm18.36,5.38c-.12.11-.24.23-.36.34.27.7.51,1.41.83,2.08s.82.65,1.14.04c.37-.7.59-1.48.88-2.22-.14-.08-.27-.17-.41-.25-.35.44-.7.88-1.01,1.26-.35-.4-.71-.83-1.07-1.25h0Zm12.65,2.76c.03-.15.05-.29.08-.44-.59-.14-1.18-.28-1.84-.44,0-.66.04-1.29-.02-1.91-.02-.2-.28-.37-.43-.56-.13.16-.36.32-.36.49-.03.97-.02,1.94-.02,2.87h2.6-.01Zm-17.13-2.46c-.37-.15-.75-.19-.83-.37-.65-1.41-1.02-.15-1.11.2-.13.47.13,1.03.17,1.55.1,1.17.58,1.43,1.67.87-1.14-1.32-1.14-1.43.1-2.26h0Zm4.07.77c-.22-.56-.44-1.11-.65-1.66-.13.56-.38,1.13-.36,1.69.02.58.28,1.15.44,1.73.18-.55.36-1.09.57-1.75h0Zm-6.46.51h0c0-.24.05-.49,0-.72-.08-.26-.26-.49-.39-.74-.14.23-.37.46-.41.7-.06.47-.06.96,0,1.43.03.2.28.37.43.55.12-.17.3-.33.36-.52.06-.22,0-.48,0-.71h.01Zm-11.04-10.09c-.45-.33-.75-.71-1.01-.69-.27.02-.7.43-.7.67,0,.26.4.71.66.72.27.02.57-.36,1.05-.7h0Z"/>
    <path class="cls-2" d="m175.77,145.11c-2.4.76-4.72,1.47-7.01,2.26-.19.07-.36.66-.29.94.26,1.04.62,2.06,1,3.24-1.51.58-2.99,1.13-4.46,1.7-.65.25-1.38.33-1.55,1.27-.05.29-.66.47-.99.69-1.64-1.51-2.89-3.1-3.21-5.28-.3-2.01-1.61-3.85-1.26-6.2-.02,0-.26-.13-.5-.26.03-.07.06-.14.09-.2.33.11.77.11.98.34.91.99,1.81,1.22,2.46.55.55-.57.48-1.68-.14-2.14-.73-.56-1.7-.27-2.35.64-.43-.3-.89-.56-1.26-.91-.29-.27-.57-.63-.68-1.01-.76-2.52-1.41-5.08-2.23-7.59-.87-2.65-1.7-5.35-2.93-7.83-.98-1.97-2.41-3.76-3.85-5.46-3.24-3.82-5.39-8.28-7.61-12.7-.1-.2-.15-.43-.24-.68.22-.11.39-.27.57-.28,1.95-.14,3.16-1.42,4.33-2.77.1-.12.2-.37.29-.36,2.12.11,2.41-2.03,3.67-2.96.88-.65,1.77-1.28,2.62-1.97.38-.31.87-.71.93-1.13.21-1.45.81-2.56,1.98-3.49.38-.31.51-1.37.3-1.89-.31-.76-.19-1.24.21-1.85.47-.72,1.11-1.5,1.16-2.29.09-1.32-.23-2.66-.39-4.11,2.15-1.05,2.68-2.96,2.6-5.26-.07-2.14.7-2.65,2.64-3.73,2.06-1.15,4.47-1.99,5.65-4.29.15.01.25-.01.3.03,1.32,1.13,2.51.95,3.71-.25.52-.53,1.21-.9,1.95-1.43,1.05,1.54,2.06,3.04,3.14,4.63-2.71,1.81-5.29,3.54-7.87,5.26-2.99,1.99-3.73,2.71-5.72,5.97-.23.38-.27,1.09-.08,1.49,2.16,4.5,4.3,9.01,6.64,13.42.56,1.06,1.68,1.96,2.75,2.58.79.46,1.75-.02,2.35-.87.52-.74.86-1.36-.09-2.11-2.91-2.32-4.19-5.77-5.99-8.86-.6-1.03-1.13-2.12-1.75-3.14-.35-.58-.22-.96.12-1.5,1.51-2.36,3.97-3.53,6.12-5.09,1.15-.84,2.36-1.6,3.64-2.47.78,2.06,1.51,4,2.24,5.93.25.65.31,1.45,1.31,1.45.1,0,.2.41.22.47-1.71.54-3.31,1.04-4.91,1.55,0,.12,0,.23.02.35.42.23.84.45,1.49.8-1.26.31-1.42.94-1.27,2.01.07.54-.81,1.19-1.22,1.82-.3.47-.52.99-.81,1.56,1.37.52,2.12.17,2.74-.92.85-1.49,1.45-1.59,3.08-.88.75.32,1.07-.03,1.17-.81.11-.85.36-1.69.55-2.53.12,0,.23,0,.35.01-.19-.28-.38-.55-.57-.83,1.71,1.05,3,1.31,2.85-1.81.66.88,1.13,1.39,1.47,1.98,1,1.73,1.99,3.47,2.9,5.24.21.4.23,1.01.1,1.45-.83,2.84-1.7,5.66-2.61,8.47-.13.39-.51.91-.84.96-.84.13-1.06.66-1.13,1.31-.24,2.21-1.42,3.27-3.64,3.58-1.94.27-1.94.44-2.87-1.28-.82-1.51-1.59-3.04-2.39-4.56-.69-1.31-.75-1.32-2.05-.4.11.2.22.41.33.62.1.17.2.34.34.57-.3.26-.59.5-.95.82,1.25,2.39,2.46,4.77,3.76,7.1.14.25.81.4,1.17.3,1.43-.38,2.83-.84,4.23-1.33.6-.21.93-.09,1.26.46,2.68,4.49,5.44,8.94,8.02,13.49.55.97.56,2.29.64,3.46.3,4.26.5,8.53.8,12.8.07.97-.3,1.31-1.17,1.55-4.16,1.15-8.3,2.34-12.44,3.56-.93.27-1.64.36-1.86-.94l-.06-.03Zm-9.66-.59c.92,0,1.4-.5,1.46-1.37.05-.83-.67-1.43-1.57-1.4-.93.03-1.39.57-1.37,1.44.02.91.56,1.35,1.48,1.33h0Zm-4.38-2.7c0,.63-.04,1.22.02,1.8.03.3.25.57.39.86.14-.27.3-.53.42-.81.15-.37.27-.76.41-1.14.15.04.31.07.46.11.04.46.06.92.13,1.38.03.16.17.39.3.43.14.04.48-.11.48-.18,0-.66.07-1.37-.14-1.97-.1-.28-.74-.43-1.16-.52-.37-.08-.77.02-1.31.04h0Zm6.25-.17c-.12.09-.25.18-.37.26.28.72.51,1.47.84,2.16.31.66.82.65,1.13.04.36-.7.58-1.48.86-2.23-.14-.08-.28-.17-.42-.25-.35.45-.7.9-.99,1.27-.35-.41-.7-.83-1.06-1.25h0Z"/>
    <path class="cls-2" d="m23.32,103.87c1.12,0,2.27-.13,3.37.03,1.84.27,3.35-.19,4.76-1.38.93-.79,1.19-1.7.84-2.77-.38-1.13-.12-1.94.91-2.53.2-.12.46-.26.54-.46.82-2.04,3.06-2.44,4.69-3.9.28,2.13.55,4.26.85,6.39.15,1.06.23,2.15.56,3.16.13.38.85.74,1.34.79.71.07,1.08.22,1.17,1,.17,1.38.49,2.74.65,4.12.11,1,.55,1.32,1.51,1.11,1.39-.31,2.79-.57,4.18-.85.08-.02.17-.07.23-.04,2.53,1.02,4.91-.45,7.38-.44.71,0,1.47.14,2.12.42,2.96,1.28,5.87,2.68,8.85,3.93,1.19.5,2.47.53,3.71-.12.7-.37,1.47-.61,2.44-1,.73,1.95,1.46,3.89,2.09,5.57-1.54.53-2.92,1.03-4.32,1.5-.81.27-.93.81-.8,1.59.78,4.48,1.53,8.97,2.29,13.45.18,1.09.35,2.19.56,3.5-1.6.14-3.16.04-4.56.46-2.1.63-3.84-.39-6.07-.96.53.9.88,1.5,1.24,2.08,1.7,2.75,3.39,5.51,5.11,8.25.34.54.35.97.19,1.62-.23.95-.3,2.08,0,2.98.34,1,.2,1.74-.46,2.37-.59.57-.61,1.11-.44,1.82.43,1.82.79,3.66,1.13,5.24-1.78.84-3.46,1.63-5.13,2.43-1.41.67-2.82,1.32-4.21,2.02-.45.23-.89.52-1.27.86-.87.76-1.64.82-2.2-.15-.86-1.5-2.16-2.51-3.36-3.67-1.1-1.06-1.94-2.4-2.88-3.63-.09-.12-.18-.29-.18-.43,0-2.73-2.05-3.91-3.9-5.29-.73-.55-1.38-1.32-1.82-2.12-.8-1.45-1.71-2.57-3.54-2.6-.96-.02-1.38-.68-1.86-1.55-1.74-3.17-2.3-6.97-5.25-9.53-1.28-1.11-2.47-2.31-3.77-3.42-2.77-2.38-4.94-5.23-3.97-9.37.31-1.34.18-2.77.33-4.16.09-.81.34-1.59.48-2.39.05-.29.07-.6.02-.89-.13-.72-.44-1.43-.46-2.15-.06-2.87-.02-5.75-.03-8.63,0-1.93-.15-2.07-2.03-2-.33.01-.66,0-1,0v-.25h-.03Z"/>
    <path class="cls-2" d="m137.33,63.2c-.67-.43-1.34-.85-2.04-1.29-.48-2.41-.96-4.87-1.49-7.5-4.07,1.87-8.11,3.72-12.31,5.65-.16-.79-.23-1.41-.42-1.99-.18-.56-.53-1.14-1.2-.56-1.56,1.36-3.11,2.74-4.58,4.19-.53.52-.86,1.24-1.23,1.89-.74,1.28-1.44,2.59-2.21,3.97-.37-.28-.64-.44-.86-.65-2.02-1.87-4.06-3.72-6.03-5.65-.39-.38-.67-1.09-.65-1.64.13-3.99.32-7.98.55-11.96.05-.91.43-1.79.48-2.7.03-.47-.33-.96-.51-1.44-.43.22-1.05.32-1.26.67-.72,1.18-1.28,2.46-1.95,3.68-.19.34-.51.61-.77.91-.27-.3-.69-.57-.77-.91-.32-1.31-.57-2.65-.77-3.99-.4-2.63-1.09-5.15-2.64-7.36-.62-.88-.46-1.55.25-2.4,2.82-3.41,5.54-6.92,8.29-10.38.54-.68.63-1.27.02-2.02-.48-.6-.72-1.39-1.07-2.11.39-.68.79-1.38,1.29-2.25-.58-.1-.92-.12-1.24-.23-.9-.29-1.7-.73-1.58-1.87.34-3.08.69-6.17,1.09-9.25.19-1.44.51-2.87.79-4.38.73.2,1.23.34,1.9.53-.12-.61-.25-1.02-.25-1.44,0-.24.14-.59.32-.68.18-.09.64,0,.73.15.39.66.9,1.34.99,2.06.27,2.07.2,2.08,2.26,2.47,1.95.38,3.9.76,6.1,1.19-1.27,1.45-.41,2.73-.06,4.04.57,2.19,1.11,4.38,1.72,6.56.08.28.46.64.75.68,1.1.18,2.22.28,3.33.35.78.05,1.07.35,1.11,1.17.09,1.95.3,3.89.46,5.91,1.42.1,2.52.03,3.78-.93,1.05-.81,2.82-.68,4.28-.93.07,0,.33.47.28.52-.28.28-.58.64-.93.72-.85.19-1.75.18-2.61.37-1.39.31-2.76.71-4.27,1.11v1.92c.1-.09.21-.18.31-.26.57.47,1.25.86,1.68,1.44.48.64.92,1.03,1.76.88.45-.08.93,0,1.57,0-.33.99-.62,1.85-.9,2.72-.33,1.03.83,3.49,1.82,3.9.44.18.87.4,1.49.69.65-.27,1.05-.67.17-1.51-.75-.71-1.41-1.51-1.91-2.05.93-2.62,1.76-5.06,2.69-7.47.57-1.48,1.28-2.92,2.01-4.33.14-.26.76-.47,1.09-.4,1.63.36,3.25.84,4.87,1.26,1.39.37,2.31-.22,2.76-1.77-1.15-.39-2.29-.81-3.47-1.16-.62-.18-.81-.44-.68-1.11.31-1.59.53-3.21.81-4.91,1.26.4,2.35.78,3.47,1.06.27.07.62-.21.94-.33-.12-.29-.15-.7-.37-.85-.88-.61-1.81-1.15-2.77-1.74-.28.47-.52.87-.76,1.26-.12-.05-.24-.1-.37-.15.18-.68.36-1.36.59-2.21,2.32,1.46,4.47,2.82,6.63,4.17,4.19,2.64,8.37,5.29,12.58,7.9.62.39.89.79.86,1.52-.05,1.39,0,2.79,0,3.67-1.74,1.45-3.21,2.62-4.62,3.85-1.9,1.65-3.76,3.35-5.61,5.05-.36.33-.63.77-.82,1.02-.74-.39-1.51-.91-2.35-1.2-3.29-1.12-6.6-2.17-9.9-3.24-2.01-.65-2.01-.64-2.56,1.66.71.27,1.44.55,2.17.81,1.09.38,2.17.85,3.3,1.06,1.94.35,2.98,1.74,3.97,3.19.22.32.22,1.03,0,1.38-1.34,2.23-1.37,2.21-3.81,1.35-.52-.18-1.05-.36-1.8-.62-.14,1.31-.27,2.51-.41,3.71-.18,1.52-.8,2.21-2.31,2.59-.46.12-.93.21-1.37.32-.25,2.06.22,3.08,1.68,2.89-.26,2.2-.51,4.31-.77,6.42-.06.51-.16,1.02-.24,1.54-.11.78.29,1.23,1.22,1.36.3-1.66.61-3.32.91-4.99h.36c.82,1.58-.38,3.27,0,4.93.72.32,1.11.05,1.18-.72.16-1.71.35-3.41.42-5.12.07-1.75-.03-3.52.05-5.27.03-.64.38-1.27.58-1.9l.33.09c0,4.3.03,8.6-.02,12.9,0,1.35-.6,1.71-1.98,1.78-.53.03-1.03.49-1.57.77l.02-.02Z"/>
    <path class="cls-2" d="m58.42,44.23c-.28.59-.63,1.1-.78,1.65-.55,2.03-.98,4.09-1.55,6.12-.29,1.02-.67,2.05-1.19,2.97-1.03,1.83-2.18,3.59-3.3,5.37-.23.37-.52.71-.86,1.17-.54-.58-.94-.91-1.21-1.32-.69-1.05-1.64-1.25-2.8-1.09-2.09.28-4.2.43-6.28.75-1.13.17-2.22.57-3.4.89-.08-.31-.16-.48-.17-.66-.1-1.42-.38-1.53-1.83-1.29-3.3.54-6.6,1.07-9.93,1.39-1.3.12-2.75-.12-3.98-.59-2.85-1.08-5.6-2.39-8.4-3.61-.4-.17-.82-.29-1.25-.44v-.99c0-1.34-.69-2.04-2-2.21-3.63-.46-6.26-2.38-7.96-5.59-.2-.38-.3-.82-.38-1.25-.36-2.04-.63-4.09-1.04-6.11-.42-2.06.34-3.51,2.33-4.15,1.9-.61,2.99-2.45,2.58-4.44-.18-.88.08-1.43.97-1.56,2-.3,3.66-1.32,5.25-2.48,1.12-.82,2.4-.9,3.67-.75,2.09.24,3.76-.24,4.94-2.12.34-.54,1-.89,1.54-1.29.66-.49,1.25-.96,1.15-1.94-.03-.26.34-.7.63-.84,1.78-.9,3.37-1.95,4.31-3.81.44-.87,1.21-1.25,2.21-.85.15.06.31.11.47.1,2.49-.17,4.39.86,5.87,2.81.18.23.66.43.92.36,1.53-.44,2.62.36,3.69,1.21.5.4.96.85,1.41,1.3.84.84,1.76,1.34,3.01,1.05.32-.07.83-.07,1.03.12,1.61,1.56,3.37.88,5.17.49,1.73-.37,3.45-.11,4.94.81.35.22.43,1.25.28,1.81-.36,1.37-.32,1.56,1.01,1.71,2.23.25,2.52.59,2.2,2.79-.25,1.68-.72,3.27-2.18,4.38-.5.38-.89.91-1.33,1.38-.7.74-.76,1.45-.13,2.35.31.44.44,1.27.25,1.75-1.26,3.07-.47,3.64,2.12,4.66h0Z"/>
    <path class="cls-2" d="m81.18,60.13c-.99,1.25-2.07,2.46-2.94,3.81-.27.42-.16,1.36.15,1.81.58.83.81,1.5.49,2.53-.18.55.16,1.35.45,1.95.39.82.93,1.58,1.47,2.31.39.53.91.96,1.37,1.44.74.77,1.58,1.47,2.21,2.32,2.22,3.04,5.37,4.27,8.94,4.68,1.19.14,2.4.09,3.57.29,1.3.22,1.41.78.78,1.93-.54.98-.88,2.06-1.4,3.32,1.42.13,2.47.23,3.67.35-.48,4.05-.96,8.11-1.46,12.36-1.64-.57-3.12-1.08-4.74-1.65-.05,1.04-.09,1.89-.14,2.96-1.72-1.1-2.81.15-4.06.86-1.39.79-2.8,1.52-4.18,2.32-.47.27-.86.67-1.29,1.01-.14.12-.27.34-.42.35-1.8.19-3.22.91-4.5,2.3-.78.84-2.14,1.16-3.27,1.67-1.67.75-3.38,1.41-5.02,2.21-1.38.67-2.75.57-4.05,0-2.84-1.27-5.61-2.68-8.43-3.97-.54-.25-1.24-.35-1.83-.27-1.81.24-3.61.6-5.42.91-.12.02-.26.09-.35.04-2.23-1.13-4.28.68-6.45.38-.04,0-.07-.02-.31-.08-.2-1.24-.38-2.56-.62-3.87-.43-2.33-.39-2-2.74-2.29-.24-2.12-.42-4.32-.76-6.5-.18-1.18-.63-2.31-1.02-3.66.25-1.24.5-2.81.91-4.33.18-.67.71-1.24,1.08-1.85.04-.06.17-.08.18-.14.49-1.97,2.41-2.66,3.58-4.02,2.51-2.92,5.08-5.71,9.27-6.13,1.89-.19,3.63-.87,5.2-1.98.6-.43,1.36-.65,2.08-.89,2.05-.7,3.68-1.89,4.68-3.86,1.41-2.79,3.43-4.78,6.68-5.23.41-.06.82-.3,1.19-.53,1.11-.7,2.12-1.67,3.32-2.11,1.35-.49,2.86-.52,4.12-.73h0Z"/>
    <path class="cls-2" d="m97,133.04c-.42.91-.8,1.73-1.18,2.55.07.12.13.25.2.37.41-.16,1.01-.19,1.2-.49,1.04-1.58,2.3-1.69,3.81-.78.17.1.38.12.56.22.69.38,2.02.34,1.82,1.37-.18.88-1.1,1.62-1.73,2.4-.24.3-.61.51-.82.82-.67.99-1.35,1.99-1.91,3.04-.45.85-.94.92-1.71.44-2.18-1.33-4.38-2.63-6.58-3.93-.24-.14-.48-.27-.78-.43-.3.34-.58.65-.89.99-.39-.22-.76-.42-1.14-.63-.11.06-.23.11-.34.17.15.35.2.86.47,1.02,1.77,1.09,1.97,3.1,2.86,4.7.09.16,0,.48-.11.68-.37.76.08.99.81,1.19.43-.64.92-1.26,1.29-1.96.12-.23-.09-.63-.1-.96,0-.47.03-.94.07-1.7,1.67,1.11,3.06,1.92,4.31,2.9.96.75,1.69.65,2.47-.16.25-.26.56-.46.84-.69.09.08.19.16.28.24-.44.73-.83,1.48-1.32,2.17-1.33,1.9-2.66,3.8-4.05,5.64-.51.68-.61,1.23-.1,1.93.41.56.62,1.16-.4,1.66-1.6-2.85-4.12-4.27-7.59-4.39.28,1.36.49,2.56.81,3.74.06.22.58.5.83.45,2.1-.36,2.82,1.38,4.02,2.55-1.17-.51-1.66.38-2.27.95-.77.7-1.51,1.42-2.27,2.13-.52.49-1.31.88-.66,1.46-.6.3-1.24.46-1.64.85-1.91,1.88-3.73,3.83-5.62,5.73-.29.29-.73.53-1.12.57-.33.03-.8-.2-.99-.46-.14-.2-.08-.78.12-.96,1.04-.96,1.16-2.07.88-3.38-.12-.56.12-1.18.17-1.78.1-1.31-.46-1.91-1.69-1.54-1.59.48-3.07.72-4.62-.13-.34-.19-.92.04-1.38.11-.45.06-.9.16-1.2.22-.42-2.07-.85-4-1.16-5.94-.09-.59.06-1.31.34-1.86.52-1.04.82-1.94.34-3.15-.29-.74.07-1.73.08-2.61,0-.59.11-1.28-.16-1.74-1.48-2.55-3.07-5.05-4.62-7.56-.12-.19-.21-.41-.33-.64,3.15.57,6.09-.36,9.3-.71-.21-1.38-.39-2.66-.61-3.93-.75-4.37-1.5-8.73-2.26-13.1-.22-1.26.8-2.26,2.4-2.33.92-.04,1.84-.03,2.75-.05.07,0,.14-.07.37-.19-.88-2.39-1.77-4.8-2.68-7.27,1.49-.71,2.96-1.36,4.39-2.12.67-.36,1.21-.98,1.89-1.33.95-.48,1.97-.82,2.97-1.21.4-.16.87-.19,1.21-.43.58-.42,1.02-1.04,1.63-1.42,1.32-.82,2.74-1.48,4.03-2.33,1-.66,1.93-1.05,3.08-.49.27.14.6.16,1.07.28.05-.93.1-1.77.16-2.79.94.34,1.81.59,2.62.97.84.4,1.59.32,2.39-.07.97-.47,1.99-.84,2.94-1.34.68-.36,1.12-.25,1.45.42.54,1.07,1.19,1.23,2.11.38.43-.4,1-.64,1.64-1.04.42.58.84,1.14,1.25,1.7,1.64,2.31,3.27,4.63,4.93,6.93.38.52.7.94.16,1.57-.15.18-.16.65-.03.87.48.78.12,1.2-.49,1.66-1.27.96-2.54,1.95-3.73,3.01-.77.69-1.41,1.54-2.19,2.41.09.44.21,1.05.37,1.82.49-.26.92-.48,1.66-.86-.61,1.52-1.09,2.82-1.66,4.09-.1.22-.53.31-.82.4-1.22.37-2.45.74-3.68,1.06-.77.2-1.01.56-.51,1.43.95-.28,1.93-.57,2.91-.86.67-.19,1.27.04,1.02.75-1.09,3.12-2.29,6.2-3.49,9.41-2.81-.99-5.51-1.95-8.22-2.88-.31-.11-.83-.23-.98-.09-.4.42-.64.97.19,1.3.77.3,1.53.64,2.37.99h0Z"/>
    <path class="cls-2" d="m56.53,36.63c.58-.61,1.07-1.23,1.67-1.74,2.09-1.76,2.58-4.14,2.57-6.68,0-1.24-.94-2.12-2.2-2.25-.31-.03-.62-.08-.62-.28-.32-1.05-.64-2.1-.96-3.16-.03-.11-.08-.25-.05-.34.72-1.75.57-3.78,1.84-5.39.57-.72.76-1.73,1.09-2.62.33-.9.56-1.84.95-2.71.78-1.75,1.92-2.38,3.81-2.23.32.03.68,0,.94.14,3.27,1.88,6.75.79,10.13.64,1.91-.09,3.54.43,5.1,1.35.39.23.59.8.85,1.23.53.87.94,1.86,1.6,2.62.8.9,1.73.81,2.6-.05.69-.68,1.41-.66,2.29-.39.83.26,1.75.24,2.63.36.68.09,1.36.17,2.04.3,1.63.32,3.26.66,4.89.99h.12c2.08.11,4.32-.28,5.77,1.9-1.55,1.76.49,2.92.9,4.53-2.44,3.1-4.95,6.3-7.46,9.5-1.68,2.15-3.56,4.01-5.96,5.44-4.83,2.87-8.3,7.01-9.97,12.42-.76,2.46-1.1,5.06-1.52,7.62-.18,1.13-.41,1.78-1.79,1.76-1.62-.02-2.89,1.05-4.06,2.03-1.56,1.31-2.18,1.32-3.37-.32-2.38-3.3-4.75-6.61-7.13-9.91-.96-1.33-1.54-2.78-1.64-4.43-.13-2-1.06-3.31-3.08-3.91-2.04-.61-2.12-.84-1.33-2.81.54-1.34.37-2.49-.66-3.63v.02Z"/>
    <path class="cls-2" d="m10.83,56.44c1.51.67,3.03,1.31,4.52,2.01,4.51,2.12,9.08,3.66,14.19,2.28,1.98-.53,4.08-.63,6.11-.93.42,2.03.42,2.04,2.46,1.72,2.7-.41,5.42-.74,8.1-1.29,1.34-.28,2.16.09,2.95,1.12,1.23,1.6,1.62,1.69,2.79.12,2.31-3.08,4.57-6.22,5.35-10.14.35-1.75.86-3.47,1.37-5.19.08-.29.52-.68.76-.66.34.04.65.4.95.65.08.06.1.22.1.34.06,3.31,2.02,5.71,3.85,8.2,2.01,2.73,3.95,5.5,6,8.37-2.84.9-4.25,3.23-5.6,5.6-.82,1.43-2.07,2.26-3.55,2.88-1.28.54-2.48,1.27-3.77,1.77-1.37.53-2.79.9-4.2,1.32-1.15.34-2.31.62-3.45.99-.49.16-1.01.37-1.37.71-1.51,1.46-2.95,3-4.44,4.48-.49.48-1.07.88-1.62,1.3-.22.17-.59.24-.68.45-.91,2.09-3.13,3.49-3.11,6.08.02,2.48-1.43,4.01-3.45,5.21-.71.42-1.22,1.18-1.83,1.79-.33.34-.62.72-1,1-.97.72-1.34,1.61-1.09,2.81.39,1.87-.83,3.4-2.82,3.47-1.91.07-3.82.01-5.73-.03-.22,0-.57-.19-.64-.38-.41-1.02-.8-2.06-1.13-3.1-.7-2.23-.74-4.73-2.72-6.42-.79-.68-1.06-1.57-.95-2.59s-.26-1.81-.78-2.74c-.68-1.23-.75-2.8-1.04-4.23-.28-1.39-.33-2.86-.82-4.17-.69-1.85-.94-3.7-.87-5.63,0-.24-.02-.56.11-.69,1.65-1.64.28-3.08-.38-4.47-.65-1.36-1.7-2.53-2.32-3.9-.39-.88-.62-2.04-.39-2.95.43-1.7.68-3.33-.17-5.02.1-.05.2-.09.3-.14h.01Z"/>
    <path class="cls-2" d="m120.12,58.89c.47,2.17,1.08,2.46,3.07,1.54,2.93-1.36,5.87-2.7,8.81-4.05.31-.14.64-.25,1.1-.43.17,1.21.29,2.31.47,3.4.19,1.12.43,2.23.69,3.56,1.45-.09,2.26.98,2.38,3,.8-.97,1.37-1.65,1.86-2.24.72.34,1.32.63,1.91.92-.3.73-.79,1.54-.96,2.4-.2,1.01.37,1.73,1.43,2.02-.13,1.05.53,2.27-.87,2.96-.11.05,0,.51-.03.78-.09.92,0,1.92-.32,2.74-1.2,2.96-2.54,5.86-3.87,8.77-.37.8-.15,1.19.76,1.4.4-.98.8-1.96,1.2-2.93h.3c.04.28.19.59.12.83-.45,1.37-.92,2.72-1.44,4.06-.47,1.22-1.01,1.4-2.21.84-1.3-.61-2.6-1.24-3.92-1.79-.26-.11-.65.08-.98.13.19.29.31.7.57.84,1.53.76,3.09,1.45,4.8,2.23-1.47,1.56-2.82,3.01-4.2,4.44-.16.17-.51.28-.75.24-1.68-.26-3.45-.19-4.87-1.39-.52-.43-1.1-.8-1.7-1.12-.25-.13-.6-.07-.9-.09.12.26.17.61.37.76,1.7,1.27,3.4,2.54,5.65,2.68.31.02.61.15,1.13.28-2.14,1.7-4.14,3.29-6.2,4.92-.2-.17-.37-.42-.61-.5-.22-.08-.54-.05-.74.07-.11.06-.14.49-.04.61.59.71.22,1.23-.27,1.77-1.95,2.16-3.9,4.33-5.85,6.49-.15.17-.34.29-.56.48-.09-.19-.2-.34-.17-.38,1-1.28.08-2.18-.6-3.13-1.95-2.73-3.93-5.44-5.82-8.21-.53-.78-.95-.78-1.62-.28-.57.43-1.19.79-1.74,1.16-.16-.04-.26-.04-.31-.09-.95-1.03-2.06-1.26-3.35-.68-.68.3-1.38.58-2.27.96.33-2.8.64-5.41.95-8.02.13-1.07.2-2.15.4-3.21.16-.85.36-1.72.72-2.49,1.12-2.38,2.25-4.77,3.53-7.07.94-1.69,2.04-3.3,3.19-4.86,1.19-1.6,2.59-3.04,3.78-4.64.98-1.31,1.75-2.77,2.68-4.13.75-1.11,1.5-2.24,2.42-3.21.81-.86,1.85-1.5,2.86-2.3l.02-.04Z"/>
    <path class="cls-2" d="m80.69,59.04c.23-10.59,5.23-18.06,14.7-22.58,1.5,2.02,2.45,4.51,2.84,7.24.23,1.62.64,3.2.9,4.82.18,1.09,1.12,1.25,1.84,1.41.36.08,1.06-.58,1.33-1.06.62-1.13,1.06-2.36,1.74-3.46-.26,4.46-.46,8.93-.8,13.38-.13,1.61.24,2.75,1.53,3.82,2.14,1.77,4.11,3.77,6.17,5.68-1.27,1.6-2.44,3.18-3.71,4.66-2.39,2.78-3.64,6.19-5.35,9.35-.34.63-.64,1.28-.96,1.93-.66,1.34-1.52,1.72-3.24,1.27.31-.61.55-1.21.89-1.75,1.07-1.68.57-3.07-1.38-3.5-.89-.2-1.82-.18-2.74-.23-3.9-.18-7.23-1.42-9.57-4.78-.62-.89-1.61-1.51-2.39-2.29-.38-.39-.69-.85-1-1.31-.33-.49-.55-1.09-.94-1.52-.63-.68-.75-1.31-.54-2.25.15-.71-.15-1.65-.55-2.31-.38-.62-.5-1,0-1.55.83-.9,1.64-1.81,2.4-2.76.36-.45.83-1.05.78-1.54-.08-.86-.92-.66-1.55-.64-.12,0-.24-.01-.4-.02h0Z"/>
    <path class="cls-2" d="m153.65,74.93h3.78c-.19,1.46-.48,2.73-.48,4,0,1.58-.6,2.71-1.93,3.44-.83.46-1.03.99-.6,1.85.15.3,0,.74,0,1.12,0,.42-.18,1.02.03,1.24.75.75.25,1.27-.13,1.88-.44.7-1.34,1.65-1.15,2.11.65,1.57-.14,2.43-.97,3.52-.55.71-.68,1.73-1.03,2.6-.08.2-.26.45-.44.5-2.19.63-3.07,2.7-4.57,4.08-.28.25-.72.33-1.01.56-.87.69-1.7,1.43-2.56,2.14-.3.25-.62.5-.97.66-1.28.56-2.68.9-3.84,1.64-3.41,2.19-6.9,1.94-10.56.85-1.58-.47-2.96-1.12-4.13-2.48.69-.81,1.33-1.67,2.08-2.43,3.06-3.1,6.13-6.17,9.23-9.23.84-.83,1.76-1.57,3.07-.77.17.1.61.02.74-.13.13-.16.08-.52.02-.77-.05-.22-.23-.4-.34-.57.89-1.49,1.81-2.89,2.58-4.36.38-.72.47-1.59.71-2.39.21-.68.37-1.4.69-2.02.46-.88,1.04-1.55,2.12-.61.5.43,1.08.31,1.41-.31.6-1.12,1.21-2.24,1.7-3.41.08-.2-.31-.74-.6-.92-.79-.48-1.02-.95-.32-1.69.21-.22.38-.52.47-.81.4-1.29-.03-1.76-1.33-1.51-.12.02-.24.04-.36.04-.07,0-.15-.04-.37-.19,2-.01,2.35-1.47,2.71-3,.8.29,1.49.61,2.21.78.3.07.67-.18,1.01-.29-.25-.22-.46-.54-.74-.63-2.3-.74-2.36-.82-2.29-3.27,0-.36.02-.72.04-1.08.07-1.39.78-2.06,2.15-2,.16-.79.42-1.49-.8-1.77-1.16-.27-1.28-1.14-.53-2.92,1.11,1.53,2.41,2.69,4.48,2.45.38-.85.17-1.36-.73-1.63-.74-.22-1.46-.54-2.19-.81,0-.11,0-.22,0-.33.43-.15.85-.36,1.29-.44,3.24-.63,6.43-1.49,9.82-.93,1.75.29,3.58.15,5.38.18,1.23.02,2.07.49,2.34,1.76.3,1.38,1,2.81-.6,3.9-.33.23-.62.55-.98.68-2.14.79-2.6,2.78-3.22,4.6-.19.54.14,1.26.25,2.05-.5-.18-.85-.3-1.18-.41-.1.06-.21.08-.23.14-.46,1.5-1.29,1.71-2.52.77-.16-.12-.5,0-.75,0,.04.25.04.51.12.75.17.48.38.95.58,1.42-.1.05-.19.1-.29.15-.14-.16-.32-.3-.4-.48-.4-.93-1.03-.91-1.87-.63-.82.27-1.69.5-2.54.53-1.08.04-1.69.32-1.47,1.54.06.34,0,.7,0,1.3h0Z"/>
    <path class="cls-2" d="m153.22,50.46c-.55-.99-1.12-1.98-1.65-2.99-.07-.14.07-.58.13-.59.61-.04,1.27-.15,1.82.03.36.12.81.72.79,1.08-.05.82-.37,1.63-.58,2.44-.17,0-.35.01-.52.02h0Z"/>
    <path class="cls-3" d="m142.61,136.32c.77.5,1.51.97,2.38,1.53-1.64.93-2.16-.3-3-.88-.23.66-.12,1.61-1.36,1.13,0-1.67,0-3.41.02-5.15,0-.17.37-.5.49-.47.24.06.58.3.62.51.12.6.1,1.23.14,1.8.83-.29,1.57-.54,2.31-.8.07.12.14.23.21.35-.51.56-1.02,1.11-1.81,1.98h0Z"/>
    <path class="cls-3" d="m128.42,133.35l-2.29.46c-.02.11-.04.22-.06.34.35.2.69.43,1.06.6,1.39.64,1.85,1.44,1.39,2.46-.47,1.05-1.92,1.43-3.1.8-.27-.14-.51-.36-.76-.54.29-.66.58-.91,1.3-.56.35.17.91-.05,1.37-.1-.29-.35-.54-.72-.87-1.02-.19-.18-.58-.19-.72-.38-.35-.48-.94-1.13-.83-1.53.17-.57.82-1.19,1.4-1.38.59-.2,1.34.1,2.02.18.03.23.06.46.09.69v-.02Z"/>
    <path class="cls-3" d="m134.02,138.28c-1.22-.04-2.08-.96-2.03-2.18.05-1.18,1.03-2.06,2.22-2.02,1.19.05,2.06,1,2.02,2.21-.05,1.21-.95,2.03-2.21,1.99h0Zm1.35-2.06c-.54-.42-.87-.89-1.21-.89-.3,0-.87.56-.83.79.06.38.47.89.83.98.25.07.66-.46,1.21-.89h0Z"/>
    <path class="cls-3" d="m132.25,135.03c-.79.15-1.13.21-1.52.28.06.8-.51,1.76.85,2,.15.03.22.49.34.77-1.73.4-2.4-.08-2.51-1.66-.04-.58.14-1.26-.79-1.29-.08,0-.23-.32-.2-.36.45-.56.84-1.21,1.41-1.59.46-.31.87.04.92.68,0,.1.4.15.58.28.25.2.47.44.93.9h-.01Z"/>
    <path class="cls-3" d="m140.37,135.22c-.61.06-1.02.09-1.42.16s-.9.07-1.14.31c-.18.19-.18.9,0,1.04.3.23.81.2,1.23.26.4.06.81.1,1.42.17-1.16,1.33-2.52,1.46-3.45.58-.92-.87-.91-2.2.02-3.05.96-.88,2.18-.78,3.34.54h0Z"/>
    <path class="cls-3" d="m134.69,144.52h-1.62c-.82,0-1.27-.39-1.31-1.21-.04-.79.18-1.39,1.09-1.57.34-.07.62-.41.93-.61.18-.12.41-.32.56-.27s.33.34.33.53c.03.99.02,1.97.02,3.13h0Z"/>
    <path class="cls-3" d="m145.46,142.03c.52-.09,1.07-.33,1.54-.21.34.08.67.59.83.98.19.46.18.99.29,1.7-.95-.26-2.07.64-2.7-.59-.13-.26.61-.97.88-1.36-.03,0-.41-.04-.79-.08-.02-.14-.03-.29-.05-.43h0Z"/>
    <path class="cls-3" d="m126.51,141.84c-.61.77-2.41-.92-2.27,1.02.12,1.67,1.55.22,2.3.7-.35,1.1-1.27,1.15-1.94.88-.53-.21-1.03-.91-1.22-1.5-.24-.77.13-1.58.97-1.81.77-.21,1.67-.33,2.16.72h0Z"/>
    <path class="cls-3" d="m128.69,142.55c.55-.68,1.26-1.08,2.08-.69.41.2.64.76,1.11,1.36-.92.07-1.49.12-2.06.16v.25c.49.03.98.05,1.55.09-.22,1.09-1.03.86-1.59.75-1.02-.21-1.21-1.03-1.05-1.95l-.04.04h0Z"/>
    <path class="cls-3" d="m148.34,141.84c.57-.03.98-.14,1.35-.06.42.09,1.07.27,1.16.55.19.61.11,1.31.1,1.98,0,.06-.26.17-.39.15-.12-.02-.27-.16-.31-.27-.06-.18,0-.41-.05-.59-.1-.34-.25-.66-.39-.99-.18.33-.35.67-.53,1-.17.3-.35.59-.53.88-.14-.29-.36-.56-.39-.86-.06-.58-.02-1.16-.02-1.79h0Z"/>
    <path class="cls-3" d="m124.45,136.27c0,.44.05.88-.02,1.31-.04.24-.3.45-.46.67-.25-.18-.7-.36-.71-.56-.07-.99-.06-1.98,0-2.97,0-.2.39-.38.6-.56.2.23.52.43.57.69.09.46.03.95.03,1.42h0Z"/>
    <path class="cls-3" d="m142.81,141.65c.36.42.72.84,1.07,1.25.3-.38.65-.82,1.01-1.26.14.08.27.17.41.25-.29.74-.51,1.52-.88,2.22-.32.61-.82.62-1.14-.04-.32-.67-.56-1.39-.83-2.08.12-.11.24-.23.36-.34h0Z"/>
    <path class="cls-3" d="m155.46,144.41h-2.6c0-.93-.02-1.9.02-2.87,0-.17.24-.32.36-.49.15.19.41.36.43.56.06.62.02,1.26.02,1.91.66.16,1.25.3,1.84.44-.03.15-.05.29-.08.44h.01Z"/>
    <path class="cls-3" d="m138.32,141.96c-1.25.83-1.25.94-.1,2.26-1.09.56-1.57.3-1.67-.87-.04-.52-.3-1.08-.17-1.55.09-.35.46-1.61,1.11-.2.08.18.47.21.83.37h0Z"/>
    <path class="cls-3" d="m128.73,142.51c-.84-.04-1.05.42-1.06,1.17,0,.27-.29.53-.45.8-.15-.27-.4-.53-.43-.81-.07-.57-.02-1.16-.02-1.97.73.44,1.82-.76,1.92.85l.04-.04h0Z"/>
    <path class="cls-3" d="m142.4,142.73c-.22.66-.39,1.21-.57,1.75-.16-.57-.43-1.15-.44-1.73,0-.56.23-1.12.36-1.69.22.55.43,1.1.65,1.66h0Z"/>
    <path class="cls-3" d="m135.94,143.24c0,.24.05.49,0,.71-.05.19-.23.35-.36.52-.15-.18-.4-.35-.43-.55-.06-.47-.07-.96,0-1.43.03-.25.26-.47.41-.7.13.25.31.48.39.74.07.22,0,.48,0,.72h-.01Z"/>
    <path class="cls-3" d="m124.9,133.15c-.48.34-.78.72-1.05.7-.25-.02-.66-.47-.66-.72s.44-.65.7-.67.55.36,1.01.69h0Z"/>
    <path class="cls-3" d="m166.11,144.52c-.92.02-1.46-.42-1.48-1.33-.02-.88.44-1.41,1.37-1.44.9-.03,1.62.57,1.57,1.4-.05.87-.53,1.39-1.46,1.37h0Z"/>
    <path class="cls-3" d="m161.73,141.82c.54-.02.94-.12,1.31-.04.42.09,1.06.24,1.16.52.21.6.14,1.31.14,1.97,0,.07-.35.22-.48.18-.14-.04-.28-.27-.3-.43-.07-.45-.09-.92-.13-1.38-.15-.04-.31-.07-.46-.11-.13.38-.25.77-.41,1.14-.12.28-.28.54-.42.81-.14-.29-.36-.56-.39-.86-.06-.58-.02-1.17-.02-1.8h0Z"/>
    <path class="cls-3" d="m167.98,141.65c.36.42.72.84,1.06,1.25.29-.37.64-.82.99-1.27.14.08.28.17.42.25-.28.75-.5,1.52-.86,2.23-.32.62-.82.62-1.13-.04-.33-.7-.57-1.44-.84-2.16.12-.09.25-.18.37-.26h0Z"/>
    <path class="cls-1" d="m135.37,136.22c-.55.42-.96.95-1.21.89-.36-.09-.77-.6-.83-.98-.04-.23.54-.8.83-.79.34,0,.67.47,1.21.89h0Z"/>
    <g>
      <path class="cls-3" d="m127.82,133.17l.33,6.52c-.16-1.53-.32-3.05-.47-4.58"/>
      <path class="cls-3" d="m126.32,133.17l.33,6.52h3c-.16-1.53-.32-3.05-.47-4.58-.04-.41-.14-.76-.44-1.06-.26-.26-.69-.46-1.06-.44-.74.03-1.59.66-1.5,1.5.16,1.53.32,3.05.47,4.58.04.41.14.76.44,1.06.26.26.69.46,1.06.44.78-.03,1.54-.66,1.5-1.5l-.33-6.52c-.04-.78-.66-1.54-1.5-1.5-.78.03-1.54.66-1.5,1.5h0Z"/>
    </g>
    <g>
      <path class="cls-2" d="m134.43,134.31l.29,6.46-1.3-7.21-.11,6.42-.5-7.49-1.22,7.27.15-7.43-1.3,7.41.33-6.81-.47,7.63.03-6.25-1.36,5.52.11-5.09-.42,6.97-.4-4.36-1.46,3.52,1.78-7.49-2.65,5.32,2.11-5.88-4.17,5.46,2.1-4.4-.36.78.33-1.95-3.11,3.27,1.74-4.2-3.05,3.64-.06-1.24c-1.18,2.69-1.44,5.77-.74,8.62l4.28-6.44.51,9.57,1.35-4c-1.21,1.82-2.43,3.64-3.64,5.46l-.73-4.31-.17-2.82c1.37,1.38,2.75,2.76,4.12,4.14.54-1.72,1.08-3.44,1.61-5.15l2.83,4.23-.52-3.31.77,5.31-1.26-1.56-.94,1.53-.64-2.71c-.56,1.51.84,3.17,2.41,3.51s3.19-.23,4.69-.8c-.12-.29-.23-.58-.35-.87-.72.15-1.45.31-2.17.46,1.45-.67,2.9-1.34,4.35-2.01-1.89-.07-3.77-.13-5.66-.2,1.3.1,2.61.2,3.91.3l-1.91-.93,2.27-2.07,1.05,5.29.32-3.83.86,2.34c-.03-2.95-1.07-5.89-2.9-8.2l4.29,3.12-2.98-4.38c1.39,2.12,2.77,4.25,4.16,6.37l-2.08-5.73,2.82,3.97-2.53-6.95,2.7,8.22-.96-8.13,1.01,6.64-1.66-6.98,2.48,7.87-.77-5.78v4.3c.14-1.25.29-2.5.43-3.74l1.58,2.23-.43-2.41.61,8.17.15-6.63.51,4.2-.16-2.75-1.87,8.37-2.58-3.72c.52,1.55,1.04,3.09,1.56,4.64l.47-2.58,2.05,4.35.26-5.84,2.94,5.45,1.21-5.64,1.34,4.87,1.28-8.95-1.85,5.46-2.48-4.24.43,7.9c-.92-1.92-1.84-3.83-2.76-5.75,1.21,1.08,1.68,2.74,2.39,4.19s1.99,2.92,3.61,2.83c1.54-.09,2.67-1.62,2.85-3.15s-.35-3.04-.88-4.49c.67,1.13,1.33,2.25,2,3.38,0-.79,0-1.58-.02-2.37.34,1.15.69,2.3,1.03,3.45"/>
      <path class="cls-2" d="m132.93,134.31l.29,6.46,2.95-.4-1.3-7.21c-.31-1.71-2.92-1.24-2.95.4l-.11,6.42h3l-.5-7.49c-.1-1.57-2.65-2.17-2.95-.4l-1.22,7.27,2.95.4.15-7.43c.03-1.65-2.65-2.1-2.95-.4l-1.3,7.41,2.95.4.33-6.81c.09-1.93-2.88-1.92-3,0l-.47,7.63h3l.03-6.25c0-1.67-2.54-2.06-2.95-.4l-1.36,5.52,2.95.4.11-5.09c.04-1.94-2.88-1.91-3,0l-.42,6.97h3l-.4-4.36c-.16-1.74-2.3-1.96-2.95-.4l-1.46,3.52,2.89.8,1.78-7.49c.38-1.59-1.95-2.74-2.74-1.16l-2.65,5.32,2.74,1.16,2.11-5.88c.63-1.74-1.8-2.39-2.74-1.16-1.39,1.82-2.78,3.64-4.17,5.46l2.59,1.51,2.1-4.4-2.59-1.51-.36.78,2.74,1.16.33-1.95c.23-1.37-1.39-2.64-2.51-1.46l-3.11,3.27,2.51,1.46,1.74-4.2c.57-1.38-1.58-2.57-2.51-1.46l-3.05,3.64,2.56,1.06-.06-1.24c-.09-1.79-2.31-1.92-2.95-.4-1.25,3-1.46,6.26-.74,9.42.3,1.33,2.07,1.37,2.74.36,1.43-2.15,2.85-4.29,4.28-6.44l-2.8-.76.51,9.57c.09,1.7,2.4,2.02,2.95.4l1.35-4c.57-1.68-1.84-2.51-2.74-1.16-1.21,1.82-2.43,3.64-3.64,5.46l2.74.36c-.38-2.26-.7-4.45-.84-6.74l-2.56,1.06,4.12,4.14c.82.82,2.17.4,2.51-.66.54-1.72,1.08-3.44,1.61-5.15l-2.74.36,2.83,4.23c.98,1.47,3,.5,2.74-1.16l-.52-3.31c-.3-1.91-3.16-1.09-2.89.8l.77,5.31,2.51-1.46-1.26-1.56c-.63-.78-1.9-.45-2.36.3l-.94,1.53,2.74.36-.64-2.71c-.35-1.46-2.51-1.39-2.89,0-.55,1.98.51,3.95,2.29,4.9,2.13,1.14,4.55.44,6.66-.34.69-.26,1.37-1.04,1.05-1.85-.12-.29-.23-.58-.35-.87-.32-.79-.97-1.23-1.85-1.05-.72.15-1.45.31-2.17.46l1.16,2.74c1.45-.67,2.9-1.34,4.35-2.01s.62-2.75-.76-2.8c-1.89-.07-3.77-.13-5.66-.2s-1.91,2.86,0,3c1.3.1,2.61.2,3.91.3,1.46.11,2.07-2.15.76-2.8l-1.91-.93.3,2.36,2.27-2.07-2.51-.66,1.05,5.29c.35,1.76,2.81,1.18,2.95-.4l.32-3.83-2.95.4.86,2.34c.55,1.5,3,1.4,2.95-.4-.09-3.25-1.13-6.37-3.11-8.96l-2.05,2.05,4.29,3.12c1.21.88,2.87-.85,2.05-2.05l-2.98-4.38c-1.08-1.58-3.65-.12-2.59,1.51,1.39,2.12,2.77,4.25,4.16,6.37.88,1.35,3.35.52,2.74-1.16l-2.08-5.73-2.74,1.16,2.82,3.97c.91,1.28,3.37.56,2.74-1.16l-2.53-6.95c-.65-1.79-3.5-1.06-2.89.8l2.7,8.22c.5,1.51,3.15,1.37,2.95-.4l-.96-8.13-2.95.4,1.01,6.64,2.89-.8-1.66-6.98-2.89.8,2.48,7.87c.48,1.52,3.18,1.35,2.95-.4l-.77-5.78c-.25-1.85-3-2-3,0v4.3c0,1.98,2.78,1.87,3,0l.44-3.74-2.8.76,1.58,2.23c1,1.41,3.04.55,2.74-1.16l-.43-2.41c-.29-1.65-3.07-1.29-2.95.4l.61,8.17c.14,1.91,2.96,1.95,3,0,.05-2.21.1-4.42.15-6.63h-3l.51,4.2c.23,1.86,3.12,1.97,3,0l-.16-2.75c-.09-1.61-2.56-2.13-2.95-.4l-1.87,8.37,2.74-.36-2.58-3.72c-.91-1.31-3.32-.56-2.74,1.16.52,1.55,1.04,3.09,1.56,4.64.43,1.28,2.61,1.56,2.89,0l.47-2.58-2.74.36,2.05,4.35c.67,1.43,2.73.61,2.8-.76l.26-5.84-2.8.76,2.94,5.45c.59,1.1,2.47.9,2.74-.36l1.21-5.64h-2.89l1.34,4.87c.36,1.32,2.67,1.53,2.89,0l1.28-8.95c.27-1.87-2.26-2.67-2.89-.8l-1.85,5.46,2.74-.36-2.48-4.24c-.72-1.24-2.88-.76-2.8.76l.43,7.9,2.8-.76c-.92-1.92-1.84-3.83-2.76-5.75l-2.36,1.82c1.36,1.31,1.65,3.28,2.69,4.81s2.61,2.78,4.53,2.63c1.79-.14,3.17-1.47,3.82-3.09.85-2.13.18-4.38-.56-6.43l-2.74,1.16c.67,1.13,1.33,2.25,2,3.38.75,1.27,2.81.74,2.8-.76,0-.79,0-1.58-.02-2.37l-2.95.4c.34,1.15.69,2.3,1.03,3.45.55,1.85,3.45,1.06,2.89-.8-.34-1.15-.69-2.3-1.03-3.45-.48-1.6-2.96-1.33-2.95.4,0,.79,0,1.58.02,2.37l2.8-.76c-.67-1.13-1.33-2.25-2-3.38-.84-1.41-3.33-.49-2.74,1.16.48,1.33,1.17,2.92.75,4.34-.31,1.04-1.22,1.79-2.23,1.1s-1.44-1.94-1.89-2.98c-.53-1.22-1.12-2.36-2.08-3.29-1.27-1.23-3.08.31-2.36,1.82.92,1.92,1.84,3.83,2.76,5.75.64,1.34,2.87.69,2.8-.76l-.43-7.9-2.8.76,2.48,4.24c.68,1.16,2.34.84,2.74-.36l1.85-5.46-2.89-.8-1.28,8.95h2.89l-1.34-4.87c-.38-1.37-2.57-1.48-2.89,0l-1.21,5.64,2.74-.36-2.94-5.45c-.74-1.37-2.73-.66-2.8.76l-.26,5.84,2.8-.76-2.05-4.35c-.53-1.13-2.52-.88-2.74.36l-.47,2.58h2.89c-.52-1.55-1.04-3.09-1.56-4.64l-2.74,1.16,2.58,3.72c.68.99,2.44.99,2.74-.36l1.87-8.37-2.95-.4.16,2.75h3l-.51-4.2c-.23-1.87-2.95-1.98-3,0-.05,2.21-.1,4.42-.15,6.63h3l-.61-8.17-2.95.4.43,2.41,2.74-1.16-1.58-2.23c-.9-1.27-2.62-.74-2.8.76l-.44,3.74h3v-4.3h-3l.77,5.78,2.95-.4c-.83-2.62-1.65-5.25-2.48-7.87-.58-1.84-3.34-1.09-2.89.8l1.66,6.98c.46,1.92,3.18,1.06,2.89-.8l-1.01-6.64c-.25-1.65-3.14-1.28-2.95.4l.96,8.13,2.95-.4-2.7-8.22-2.89.8,2.53,6.95,2.74-1.16-2.82-3.97c-.91-1.28-3.36-.56-2.74,1.16l2.08,5.73,2.74-1.16c-1.39-2.12-2.77-4.25-4.16-6.37l-2.59,1.51,2.98,4.38,2.05-2.05-4.29-3.12c-1.18-.86-2.95.87-2.05,2.05,1.67,2.18,2.62,4.69,2.7,7.45l2.95-.4-.86-2.34c-.59-1.6-2.8-1.32-2.95.4l-.32,3.83,2.95-.4-1.05-5.29c-.23-1.17-1.73-1.37-2.51-.66l-2.27,2.07c-.68.62-.55,1.94.3,2.36l1.91.93.76-2.8c-1.3-.1-2.61-.2-3.91-.3v3c1.89.07,3.77.13,5.66.2l-.76-2.8c-1.45.67-2.9,1.34-4.35,2.01-1.61.75-.42,3.08,1.16,2.74.72-.15,1.45-.31,2.17-.46l-1.85-1.05c.12.29.23.58.35.87l1.05-1.85c-1.14.42-2.42.97-3.66.82-.81-.1-1.86-.74-1.6-1.69h-2.89l.64,2.71c.31,1.29,2.09,1.42,2.74.36l.94-1.53-2.36.3,1.26,1.56c1.06,1.32,2.69-.18,2.51-1.46l-.77-5.31-2.89.8.52,3.31,2.74-1.16-2.83-4.23c-.72-1.08-2.34-.91-2.74.36l-1.61,5.15,2.51-.66c-1.37-1.38-2.75-2.76-4.12-4.14-.88-.88-2.64-.27-2.56,1.06.15,2.55.53,5.01.95,7.53.23,1.37,2.09,1.33,2.74.36,1.21-1.82,2.43-3.64,3.64-5.46l-2.74-1.16-1.35,4,2.95.4-.51-9.57c-.08-1.51-1.96-2.01-2.8-.76l-4.28,6.44,2.74.36c-.61-2.67-.31-5.31.74-7.82l-2.95-.4.06,1.24c.06,1.18,1.67,2.12,2.56,1.06l3.05-3.64-2.51-1.46-1.74,4.2c-.59,1.43,1.54,2.48,2.51,1.46l3.11-3.27-2.51-1.46-.33,1.95c-.26,1.53,1.96,2.82,2.74,1.16l.36-.78c.81-1.73-1.75-3.26-2.59-1.51l-2.1,4.4c-.85,1.78,1.43,3.03,2.59,1.51,1.39-1.82,2.78-3.64,4.17-5.46l-2.74-1.16-2.11,5.88c-.57,1.59,1.98,2.68,2.74,1.16l2.65-5.32-2.74-1.16-1.78,7.49c-.46,1.93,2.17,2.54,2.89.8l1.46-3.52-2.95-.4.4,4.36c.18,1.91,2.88,1.95,3,0l.42-6.97h-3l-.11,5.09c-.04,1.68,2.54,2.05,2.95.4l1.36-5.52-2.95-.4-.03,6.25c0,1.95,2.88,1.91,3,0l.47-7.63h-3l-.33,6.81c-.08,1.66,2.65,2.08,2.95.4l1.3-7.41-2.95-.4-.15,7.43c-.03,1.65,2.66,2.1,2.95.4l1.22-7.27-2.95-.4.5,7.49c.13,1.91,2.97,1.95,3,0l.11-6.42-2.95.4,1.3,7.21c.3,1.66,3.02,1.28,2.95-.4l-.29-6.46c-.09-1.92-3.09-1.93-3,0h0l.03.04Z"/>
    </g>
    <g>
      <path class="cls-2" d="m170.68,142.23l-2.55,1.17c.33-.96.66-1.91.98-2.87-.24,1.42-.48,2.85-.72,4.27-.75-1.48-1.04-3.2-.82-4.85-.19.38-.38.75-.57,1.13-.29-.42-.58-.84-.87-1.26-.48,1.36-.95,2.71-1.43,4.07-.04-1.16-.08-2.32-.12-3.48.36,1.57.73,3.13,1.09,4.7-.36-1.31-1.18-2.49-2.28-3.29.07.81.13,1.63.2,2.44-.73-1.58-1.47-3.16-2.2-4.75.28,1.19.55,2.37.83,3.56-.84-.68-1.69-1.37-2.53-2.05.23,1.44.46,2.89.7,4.33-.78-1.73-1.56-3.47-2.33-5.2.46,1.76.93,3.51,1.39,5.27"/>
      <path class="cls-2" d="m169.92,140.94l-2.55,1.17,2.2,1.69c.33-.96.66-1.91.98-2.87l-2.89-.8c-.24,1.42-.48,2.85-.72,4.27l2.74-.36c-.63-1.28-.78-2.68-.61-4.09.18-1.49-2.15-2.03-2.8-.76-.19.38-.38.75-.57,1.13h2.59c-.29-.42-.58-.84-.87-1.26-.75-1.09-2.3-.89-2.74.36-.48,1.36-.95,2.71-1.43,4.07l2.95.4c-.04-1.16-.08-2.32-.12-3.48l-2.95.4c.36,1.57.73,3.13,1.09,4.7l2.89-.8c-.51-1.73-1.54-3.11-2.97-4.19-.89-.67-2.34.23-2.26,1.3.07.81.13,1.63.2,2.44l2.8-.76c-.73-1.58-1.47-3.16-2.2-4.75-.31-.67-1.25-.89-1.87-.61-.7.31-1.04,1.02-.87,1.77.28,1.19.55,2.37.83,3.56l2.51-1.46c-.84-.68-1.69-1.37-2.53-2.05-1.2-.97-2.75-.06-2.51,1.46s.46,2.89.7,4.33l2.74-1.16c-.78-1.73-1.56-3.47-2.33-5.2-.3-.67-1.25-.89-1.87-.61-.68.3-1.06,1.03-.87,1.77.46,1.76.93,3.51,1.39,5.27.49,1.87,3.39,1.07,2.89-.8-.46-1.76-.93-3.51-1.39-5.27l-2.74,1.16c.78,1.73,1.56,3.47,2.33,5.2.3.67,1.25.89,1.87.61.73-.32.99-1.01.87-1.77-.23-1.44-.46-2.89-.7-4.33l-2.51,1.46c.84.68,1.69,1.37,2.53,2.05,1.14.92,2.87.09,2.51-1.46-.28-1.19-.55-2.37-.83-3.56l-2.74,1.16c.73,1.58,1.47,3.16,2.2,4.75.62,1.33,2.91.7,2.8-.76-.07-.81-.13-1.63-.2-2.44l-2.26,1.3c.78.59,1.32,1.47,1.59,2.39.55,1.85,3.33,1.08,2.89-.8-.36-1.57-.73-3.13-1.09-4.7s-3-1.3-2.95.4c.04,1.16.08,2.32.12,3.48.06,1.73,2.39,1.98,2.95.4.48-1.36.95-2.71,1.43-4.07l-2.74.36c.29.42.58.84.87,1.26.59.86,2.05,1.08,2.59,0,.19-.38.38-.75.57-1.13l-2.8-.76c-.24,1.94.17,3.86,1.02,5.6.54,1.11,2.53.9,2.74-.36.24-1.42.48-2.85.72-4.27.13-.8-.21-1.62-1.05-1.85s-1.58.28-1.85,1.05c-.33.96-.66,1.91-.98,2.87-.19.56.09,1.24.54,1.58.52.39,1.09.38,1.67.12l2.55-1.17c.74-.34.92-1.4.54-2.05-.44-.76-1.31-.88-2.05-.54h.01Z"/>
    </g>
  </g>
</svg>